<?xml version="1.0" encoding="utf-8"?>
<!-- Generator: Adobe Illustrator 16.0.0, SVG Export Plug-In . SVG Version: 6.00 Build 0)  -->
<!DOCTYPE svg PUBLIC "-//W3C//DTD SVG 1.1//EN" "http://www.w3.org/Graphics/SVG/1.1/DTD/svg11.dtd">
<svg version="1.1" id="Layer_1" xmlns="http://www.w3.org/2000/svg" xmlns:xlink="http://www.w3.org/1999/xlink" x="0px" y="0px"
	 width="500px" height="300px" viewBox="0 0 500 300" enable-background="new 0 0 500 300" xml:space="preserve">
<g>
	<path fill="#C66402" d="M147.547,153.739v16.847h-8.021v-43.117h13.15c2.942,0,5.461,0.304,7.559,0.91
		c2.099,0.606,3.817,1.456,5.159,2.549c1.341,1.093,2.325,2.4,2.952,3.92c0.626,1.521,0.94,3.196,0.94,5.026
		c0,1.451-0.216,2.822-0.641,4.114c-0.429,1.293-1.045,2.465-1.85,3.519c-0.807,1.054-1.8,1.979-2.982,2.773
		c-1.184,0.795-2.531,1.432-4.041,1.909c1.015,0.575,1.89,1.401,2.624,2.474l10.795,15.923h-7.217c-0.696,0-1.286-0.137-1.773-0.417
		c-0.487-0.276-0.9-0.676-1.238-1.192l-9.065-13.806c-0.337-0.517-0.71-0.885-1.117-1.104c-0.406-0.22-1.01-0.328-1.804-0.328
		H147.547z M147.547,147.985h5.009c1.51,0,2.829-0.189,3.95-0.568c1.125-0.377,2.049-0.898,2.775-1.564
		c0.723-0.666,1.268-1.457,1.625-2.37c0.357-0.916,0.536-1.919,0.536-3.012c0-2.188-0.721-3.867-2.161-5.04
		c-1.442-1.172-3.644-1.76-6.605-1.76h-5.129V147.985z"/>
	<path fill="#C66402" d="M190.545,139.515c1.93,0,3.702,0.309,5.323,0.926c1.621,0.616,3.018,1.515,4.19,2.697
		c1.172,1.184,2.088,2.635,2.743,4.354c0.655,1.719,0.985,3.682,0.985,5.889c0,0.557-0.027,1.019-0.077,1.386
		c-0.048,0.368-0.138,0.655-0.268,0.864c-0.128,0.21-0.303,0.359-0.522,0.449c-0.217,0.089-0.496,0.133-0.834,0.133h-18.905
		c0.218,3.142,1.063,5.447,2.535,6.918c1.472,1.472,3.418,2.207,5.843,2.207c1.195,0,2.223-0.139,3.086-0.418
		c0.866-0.278,1.621-0.586,2.268-0.923c0.645-0.34,1.213-0.646,1.7-0.926c0.486-0.277,0.959-0.417,1.416-0.417
		c0.298,0,0.557,0.059,0.776,0.18c0.217,0.119,0.407,0.288,0.564,0.505l2.148,2.685c-0.814,0.954-1.729,1.755-2.743,2.399
		c-1.014,0.648-2.072,1.164-3.175,1.551c-1.106,0.389-2.228,0.661-3.371,0.82c-1.145,0.16-2.251,0.24-3.326,0.24
		c-2.127,0-4.104-0.354-5.933-1.061c-1.83-0.705-3.419-1.748-4.771-3.13c-1.353-1.381-2.416-3.092-3.191-5.128
		c-0.774-2.038-1.163-4.399-1.163-7.084c0-2.086,0.339-4.049,1.013-5.888c0.676-1.838,1.646-3.439,2.909-4.8
		c1.262-1.362,2.803-2.44,4.621-3.235C186.207,139.913,188.259,139.515,190.545,139.515z M190.695,144.794
		c-2.148,0-3.829,0.606-5.039,1.818c-1.213,1.213-1.988,2.933-2.326,5.158h13.835c0-0.954-0.128-1.853-0.388-2.697
		c-0.259-0.845-0.656-1.585-1.191-2.222c-0.538-0.636-1.213-1.137-2.027-1.506C192.742,144.978,191.787,144.794,190.695,144.794z"/>
	<path fill="#C66402" d="M211.091,170.586v-25.047l-2.654-0.417c-0.577-0.1-1.037-0.298-1.386-0.597
		c-0.349-0.297-0.522-0.715-0.522-1.251v-3.013h4.563v-0.984c0-1.869,0.308-3.604,0.924-5.203c0.617-1.602,1.552-2.986,2.805-4.161
		c1.25-1.172,2.831-2.091,4.739-2.758c1.909-0.665,4.165-0.998,6.77-0.998c0.834,0,1.689,0.044,2.563,0.134
		c0.875,0.09,1.631,0.234,2.267,0.432l-0.238,3.817c-0.04,0.458-0.289,0.731-0.745,0.821c-0.458,0.088-1.024,0.134-1.699,0.134
		c-1.93,0-3.544,0.169-4.845,0.506c-1.304,0.338-2.355,0.839-3.162,1.505c-0.804,0.666-1.381,1.501-1.73,2.505
		c-0.347,1.005-0.521,2.172-0.521,3.503v0.746h18.966v30.325h-7.366V145.51h-11.362v25.076H211.091z"/>
	<path fill="#C66402" d="M245.621,170.586v-30.593h4.502c0.957,0,1.581,0.448,1.88,1.341l0.506,2.416
		c0.617-0.635,1.268-1.212,1.953-1.729c0.686-0.517,1.411-0.964,2.179-1.342c0.763-0.377,1.584-0.665,2.459-0.864
		c0.874-0.198,1.829-0.299,2.863-0.299c1.669,0,3.15,0.284,4.442,0.851c1.292,0.565,2.37,1.362,3.235,2.385
		c0.863,1.024,1.521,2.247,1.968,3.667c0.447,1.421,0.672,2.987,0.672,4.696v19.471h-7.366v-19.471c0-1.869-0.432-3.315-1.297-4.338
		c-0.864-1.024-2.162-1.536-3.892-1.536c-1.272,0-2.465,0.288-3.578,0.864c-1.113,0.578-2.167,1.362-3.161,2.355v22.125H245.621z"/>
	<path fill="#C66402" d="M292.168,139.515c1.928,0,3.703,0.309,5.322,0.926c1.621,0.616,3.018,1.515,4.191,2.697
		c1.172,1.184,2.086,2.635,2.742,4.354c0.655,1.719,0.984,3.682,0.984,5.889c0,0.557-0.025,1.019-0.075,1.386
		c-0.05,0.368-0.139,0.655-0.268,0.864c-0.13,0.21-0.304,0.359-0.522,0.449c-0.218,0.089-0.496,0.133-0.836,0.133h-18.902
		c0.216,3.142,1.062,5.447,2.533,6.918c1.472,1.472,3.418,2.207,5.845,2.207c1.193,0,2.22-0.139,3.085-0.418
		c0.864-0.278,1.62-0.586,2.267-0.923c0.645-0.34,1.213-0.646,1.7-0.926c0.487-0.277,0.959-0.417,1.417-0.417
		c0.298,0,0.557,0.059,0.774,0.18c0.22,0.119,0.408,0.288,0.566,0.505l2.147,2.685c-0.814,0.954-1.729,1.755-2.744,2.399
		c-1.014,0.648-2.072,1.164-3.175,1.551c-1.104,0.389-2.227,0.661-3.369,0.82c-1.145,0.16-2.252,0.24-3.326,0.24
		c-2.128,0-4.105-0.354-5.934-1.061c-1.83-0.705-3.419-1.748-4.771-3.13c-1.353-1.381-2.416-3.092-3.19-5.128
		c-0.775-2.038-1.163-4.399-1.163-7.084c0-2.086,0.337-4.049,1.013-5.888c0.676-1.838,1.646-3.439,2.908-4.8
		c1.261-1.362,2.805-2.44,4.622-3.235C287.829,139.913,289.883,139.515,292.168,139.515z M292.317,144.794
		c-2.148,0-3.828,0.606-5.04,1.818c-1.212,1.213-1.988,2.933-2.326,5.158h13.836c0-0.954-0.128-1.853-0.388-2.697
		c-0.258-0.845-0.656-1.585-1.191-2.222c-0.538-0.636-1.213-1.137-2.028-1.506C294.364,144.978,293.409,144.794,292.317,144.794z"/>
	<path fill="#934703" d="M341.457,160.419c0.438,0,0.816,0.169,1.135,0.507l3.161,3.429c-1.75,2.167-3.903,3.828-6.456,4.981
		c-2.556,1.151-5.621,1.729-9.199,1.729c-3.201,0-6.079-0.548-8.633-1.641c-2.556-1.092-4.736-2.614-6.544-4.562
		c-1.81-1.948-3.198-4.274-4.162-6.978c-0.964-2.704-1.446-5.656-1.446-8.856c0-3.239,0.538-6.208,1.611-8.901
		c1.073-2.694,2.585-5.015,4.53-6.963c1.95-1.948,4.282-3.463,6.994-4.547c2.714-1.083,5.71-1.625,8.99-1.625
		c3.201,0,5.999,0.511,8.395,1.535c2.396,1.024,4.448,2.381,6.158,4.07l-2.684,3.728c-0.159,0.238-0.364,0.447-0.611,0.626
		c-0.249,0.179-0.592,0.269-1.03,0.269c-0.455,0-0.924-0.18-1.399-0.537c-0.478-0.358-1.085-0.746-1.821-1.164
		c-0.734-0.417-1.664-0.805-2.786-1.163c-1.124-0.358-2.551-0.537-4.28-0.537c-2.025,0-3.89,0.353-5.591,1.059
		c-1.699,0.706-3.159,1.714-4.383,3.026c-1.224,1.312-2.177,2.907-2.861,4.786c-0.687,1.879-1.03,3.991-1.03,6.336
		c0,2.425,0.344,4.582,1.03,6.47c0.685,1.889,1.613,3.479,2.786,4.771c1.174,1.293,2.555,2.282,4.145,2.968s3.301,1.028,5.131,1.028
		c1.092,0,2.081-0.061,2.967-0.18c0.884-0.119,1.698-0.308,2.445-0.566c0.744-0.257,1.45-0.591,2.116-0.998
		c0.666-0.408,1.326-0.91,1.981-1.506c0.199-0.179,0.407-0.323,0.627-0.434C340.961,160.475,341.2,160.419,341.457,160.419z"/>
	<path fill="#934703" d="M374.914,135.311c-0.218,0.437-0.473,0.746-0.76,0.924c-0.289,0.179-0.63,0.269-1.028,0.269
		c-0.399,0-0.846-0.153-1.343-0.462c-0.496-0.309-1.082-0.651-1.758-1.029c-0.678-0.377-1.468-0.72-2.372-1.029
		c-0.905-0.308-1.972-0.462-3.206-0.462c-1.113,0-2.082,0.134-2.905,0.403c-0.825,0.268-1.523,0.641-2.088,1.117
		c-0.568,0.477-0.989,1.05-1.268,1.715s-0.418,1.396-0.418,2.191c0,1.013,0.283,1.86,0.85,2.535
		c0.567,0.676,1.316,1.252,2.251,1.729c0.936,0.478,1.999,0.904,3.19,1.283c1.193,0.378,2.41,0.78,3.653,1.207
		c1.243,0.429,2.461,0.925,3.653,1.492c1.192,0.567,2.257,1.282,3.19,2.147c0.936,0.864,1.687,1.923,2.251,3.176
		c0.566,1.252,0.851,2.772,0.851,4.562c0,1.948-0.333,3.772-1,5.473c-0.666,1.699-1.64,3.18-2.921,4.442
		c-1.282,1.262-2.849,2.256-4.697,2.98c-1.849,0.727-3.967,1.09-6.352,1.09c-1.371,0-2.723-0.135-4.056-0.403
		c-1.332-0.269-2.609-0.65-3.832-1.147s-2.365-1.093-3.428-1.789c-1.063-0.696-2.014-1.472-2.85-2.325l2.328-3.848
		c0.218-0.277,0.48-0.512,0.789-0.7c0.308-0.188,0.651-0.283,1.028-0.283c0.498,0,1.033,0.203,1.612,0.611
		c0.575,0.406,1.257,0.859,2.041,1.356c0.785,0.497,1.709,0.949,2.773,1.356c1.063,0.407,2.341,0.611,3.831,0.611
		c2.287,0,4.056-0.541,5.308-1.625c1.254-1.084,1.88-2.64,1.88-4.666c0-1.134-0.284-2.059-0.851-2.773
		c-0.566-0.716-1.317-1.317-2.252-1.805c-0.934-0.487-1.996-0.9-3.19-1.236c-1.192-0.339-2.405-0.707-3.638-1.104
		c-1.231-0.397-2.445-0.875-3.638-1.431c-1.192-0.555-2.257-1.283-3.189-2.176c-0.936-0.894-1.688-2.013-2.251-3.355
		c-0.568-1.342-0.851-2.997-0.851-4.964c0-1.57,0.313-3.101,0.938-4.592c0.626-1.49,1.539-2.813,2.743-3.965
		c1.204-1.153,2.68-2.078,4.429-2.775c1.749-0.694,3.748-1.042,5.993-1.042c2.546,0,4.891,0.397,7.037,1.192
		c2.147,0.796,3.977,1.909,5.485,3.34L374.914,135.311z"/>
	<path fill="#934703" d="M406.91,135.311c-0.218,0.437-0.472,0.746-0.76,0.924c-0.29,0.179-0.631,0.269-1.03,0.269
		c-0.396,0-0.845-0.153-1.341-0.462c-0.497-0.309-1.083-0.651-1.759-1.029c-0.676-0.377-1.467-0.72-2.37-1.029
		c-0.906-0.308-1.975-0.462-3.207-0.462c-1.113,0-2.082,0.134-2.907,0.403c-0.824,0.268-1.52,0.641-2.087,1.117
		c-0.566,0.477-0.989,1.05-1.267,1.715c-0.279,0.666-0.418,1.396-0.418,2.191c0,1.013,0.282,1.86,0.851,2.535
		c0.565,0.676,1.317,1.252,2.251,1.729c0.934,0.478,1.998,0.904,3.19,1.283c1.191,0.378,2.41,0.78,3.653,1.207
		c1.242,0.429,2.46,0.925,3.652,1.492c1.194,0.567,2.257,1.282,3.191,2.147c0.933,0.864,1.685,1.923,2.249,3.176
		c0.567,1.252,0.852,2.772,0.852,4.562c0,1.948-0.332,3.772-0.999,5.473c-0.668,1.699-1.64,3.18-2.923,4.442
		c-1.281,1.262-2.848,2.256-4.696,2.98c-1.849,0.727-3.967,1.09-6.352,1.09c-1.371,0-2.724-0.135-4.055-0.403
		c-1.333-0.269-2.608-0.65-3.831-1.147c-1.225-0.497-2.367-1.093-3.431-1.789c-1.063-0.696-2.013-1.472-2.848-2.325l2.325-3.848
		c0.22-0.277,0.482-0.512,0.79-0.7c0.309-0.188,0.652-0.283,1.03-0.283c0.496,0,1.032,0.203,1.609,0.611
		c0.577,0.406,1.257,0.859,2.043,1.356c0.785,0.497,1.71,0.949,2.773,1.356s2.341,0.611,3.831,0.611
		c2.285,0,4.057-0.541,5.308-1.625c1.253-1.084,1.879-2.64,1.879-4.666c0-1.134-0.282-2.059-0.851-2.773
		c-0.565-0.716-1.315-1.317-2.251-1.805c-0.934-0.487-1.997-0.9-3.188-1.236c-1.192-0.339-2.406-0.707-3.64-1.104
		c-1.231-0.397-2.445-0.875-3.638-1.431c-1.192-0.555-2.257-1.283-3.192-2.176c-0.934-0.894-1.684-2.013-2.25-3.355
		c-0.566-1.342-0.85-2.997-0.85-4.964c0-1.57,0.314-3.101,0.94-4.592c0.625-1.49,1.54-2.813,2.743-3.965
		c1.201-1.153,2.677-2.078,4.429-2.775c1.749-0.694,3.745-1.042,5.992-1.042c2.544,0,4.89,0.397,7.037,1.192
		c2.147,0.796,3.976,1.909,5.487,3.34L406.91,135.311z"/>
	<path fill="#FAAF40" d="M183.518,184.869c-8.876,8.804-21.093,14.245-34.582,14.245c-27.124,0-49.113-21.989-49.113-49.114
		c0-27.125,21.989-49.114,49.113-49.114c13.489,0,25.707,5.443,34.582,14.245l14.886-14.884
		c-12.686-12.613-30.165-20.409-49.468-20.409c-38.75,0-70.163,31.413-70.163,70.162c0,38.751,31.413,70.162,70.163,70.162
		c19.303,0,36.782-7.795,49.468-20.406L183.518,184.869z"/>
	<rect x="414.21" y="164.048" fill="#934703" width="7.018" height="7.017"/>
</g>
</svg>
