<?xml version="1.0" encoding="utf-8"?>
<!-- Generator: Adobe Illustrator 16.0.0, SVG Export Plug-In . SVG Version: 6.00 Build 0)  -->
<!DOCTYPE svg PUBLIC "-//W3C//DTD SVG 1.1//EN" "http://www.w3.org/Graphics/SVG/1.1/DTD/svg11.dtd">
<svg version="1.1" id="Layer_1" xmlns="http://www.w3.org/2000/svg" xmlns:xlink="http://www.w3.org/1999/xlink" x="0px" y="0px"
	 width="500px" height="500px" viewBox="0 0 500 500" enable-background="new 0 0 500 500" xml:space="preserve">
<g>
	<polygon fill="#935314" points="250,144.342 250,237.784 396.466,181.051 250,115.049 	"/>
	<polygon fill="#844C0F" points="250,149.904 250,243.345 103.533,186.613 250,120.611 	"/>
	<polygon fill="#D8983A" points="250,143.786 417,201.63 417,156.022 250,98.178 	"/>
	<polygon fill="#F7B346" points="417,201.63 250,259.474 250,213.866 417,156.022 	"/>
	<polygon fill="#F7B346" points="250,143.786 83,201.63 83,156.022 250,98.178 	"/>
	<polygon fill="#D8983A" points="83,201.63 250,259.474 250,213.866 83,156.022 	"/>
	<polygon fill="#BA7820" points="250,259.474 418.1,201.63 275.648,304.157 250,311.202 	"/>
	<polygon fill="#A06013" points="250,259.474 82.154,201.63 224.478,304.157 250,311.202 	"/>
	<polygon fill="#7C4203" points="250,311.202 250,401.822 275,393.294 275,304.157 	"/>
	<polygon fill="#542B02" points="250,311.202 250,401.822 225,393.294 225,304.157 	"/>
</g>
</svg>
