<?xml version="1.0" encoding="utf-8"?>
<!-- Generator: Adobe Illustrator 16.0.0, SVG Export Plug-In . SVG Version: 6.00 Build 0)  -->
<!DOCTYPE svg PUBLIC "-//W3C//DTD SVG 1.1//EN" "http://www.w3.org/Graphics/SVG/1.1/DTD/svg11.dtd">
<svg version="1.1" id="Layer_1" xmlns="http://www.w3.org/2000/svg" xmlns:xlink="http://www.w3.org/1999/xlink" x="0px" y="0px"
	 width="1280px" height="640px" viewBox="0 0 1280 640" enable-background="new 0 0 1280 640" xml:space="preserve">
<g>
	<g>
		<polygon fill="#935314" points="321,231.562 321,309.774 443.596,262.288 321,207.043 		"/>
		<polygon fill="#844C0F" points="321,236.218 321,314.429 198.405,266.944 321,211.699 		"/>
		<polygon fill="#D8983A" points="321,231.096 461,279.513 461,241.339 321,192.922 		"/>
		<polygon fill="#F7B346" points="461,279.513 321,327.93 321,289.754 461,241.339 		"/>
		<polygon fill="#F7B346" points="321,231.096 182,279.513 182,241.339 321,192.922 		"/>
		<polygon fill="#D8983A" points="182,279.513 321,327.93 321,289.754 182,241.339 		"/>
		<polygon fill="#BA7820" points="321,327.93 461.41,279.513 342.322,365.331 321,371.227 		"/>
		<polygon fill="#A06013" points="321,327.93 180.218,279.513 299.491,365.331 321,371.227 		"/>
		<polygon fill="#7C4203" points="321,371.227 321,447.078 342,439.939 342,365.331 		"/>
		<polygon fill="#542B02" points="321,371.227 321,447.078 300,439.939 300,365.331 		"/>
	</g>
	<g>
		<g>
			<g>
				<path fill="#A67C52" d="M509.648,335.995v-89.917h37.182c3.563,0,6.884,0.426,9.964,1.275c3.077,0.851,5.791,2.33,8.142,4.436
					c2.348,2.107,4.191,5.023,5.528,8.748c1.336,3.729,2.005,8.507,2.005,14.34c0,4.131-0.406,7.654-1.215,10.57
					c-0.812,2.916-1.884,5.306-3.221,7.169c-1.337,1.864-2.855,3.362-4.557,4.496c-1.7,1.137-3.443,2.065-5.225,2.795l16.769,36.088
					h-18.348l-14.46-33.294c-0.973,0-2.087-0.02-3.341-0.061c-1.258-0.04-2.533-0.061-3.828-0.061c-1.297,0-2.594,0-3.889,0
					c-1.296,0-2.472-0.04-3.523-0.121v33.536H509.648z M527.632,288.242h16.039c1.619,0,3.077-0.201,4.374-0.607
					c1.295-0.404,2.431-1.113,3.402-2.126c0.973-1.013,1.721-2.37,2.248-4.071c0.526-1.7,0.79-3.889,0.79-6.561
					c0-2.511-0.264-4.598-0.79-6.259c-0.527-1.659-1.275-2.955-2.248-3.887c-0.972-0.932-2.107-1.581-3.402-1.945
					c-1.297-0.365-2.755-0.547-4.374-0.547h-16.039V288.242z"/>
				<path fill="#A67C52" d="M611.23,336.603c-7.211,0-12.961-0.95-17.255-2.855c-4.294-1.903-7.393-5.286-9.295-10.146
					c-1.904-4.86-2.855-11.583-2.855-20.17c0-8.83,0.891-15.675,2.673-20.534c1.781-4.861,4.779-8.263,8.992-10.207
					c4.211-1.944,9.922-2.916,17.133-2.916c6.479,0,11.665,0.648,15.553,1.943c3.889,1.298,6.702,3.566,8.445,6.805
					c1.741,3.241,2.613,7.818,2.613,13.73c0,4.375-0.872,7.837-2.613,10.389c-1.743,2.553-4.192,4.375-7.352,5.469
					c-3.159,1.093-6.886,1.641-11.179,1.641h-16.403c0.161,3.322,0.668,5.974,1.519,7.958c0.851,1.986,2.431,3.401,4.738,4.252
					c2.31,0.853,5.65,1.277,10.025,1.277h19.076v10.57c-3.159,0.65-6.621,1.277-10.389,1.884
					C620.891,336.298,616.414,336.603,611.23,336.603z M599.444,299.056h14.824c2.43,0,4.211-0.486,5.347-1.457
					c1.133-0.972,1.7-2.714,1.7-5.226c0-2.35-0.364-4.231-1.093-5.649c-0.729-1.417-1.865-2.431-3.402-3.037
					c-1.54-0.609-3.605-0.911-6.197-0.911c-2.755,0-4.942,0.466-6.562,1.396c-1.621,0.932-2.795,2.572-3.523,4.921
					C599.809,291.443,599.444,294.764,599.444,299.056z"/>
				<path fill="#A67C52" d="M652.664,335.995v-50.791h-9.234v-11.543l9.234-2.916v-7.048c0-5.347,0.729-9.558,2.186-12.638
					c1.459-3.077,3.664-5.264,6.623-6.562c2.955-1.294,6.662-1.943,11.119-1.943c3.32,0,6.418,0.183,9.295,0.546
					c2.875,0.365,5.203,0.871,6.986,1.52v13.001c-1.297-0.079-2.896-0.16-4.801-0.242c-1.902-0.081-3.664-0.121-5.285-0.121
					c-2.023,0-3.625,0.324-4.799,0.971c-1.176,0.649-2.025,1.641-2.553,2.978c-0.527,1.336-0.789,3.019-0.789,5.043v4.496h34.994
					v14.459h-34.994v50.791H652.664z M699.201,261.146c-1.699,0-2.551-0.81-2.551-2.431v-11.908c0-1.701,0.852-2.551,2.551-2.551
					h13.852c0.809,0,1.398,0.242,1.764,0.729c0.363,0.485,0.545,1.093,0.545,1.821v11.908c0,1.621-0.77,2.431-2.309,2.431H699.201z
					 M697.014,335.995v-65.25h17.984v65.25H697.014z"/>
				<path fill="#A67C52" d="M728.85,335.995v-65.25h14.824l3.16,6.683c2.428-2.023,5.484-3.828,9.172-5.406
					c3.686-1.58,7.475-2.37,11.363-2.37c5.346,0,9.477,1.055,12.393,3.159c2.918,2.106,4.961,4.921,6.137,8.445
					c1.174,3.523,1.762,7.433,1.762,11.726v43.014h-17.984v-40.706c0-2.105-0.383-3.846-1.152-5.224
					c-0.773-1.377-1.844-2.431-3.221-3.159c-1.379-0.729-3.037-1.094-4.982-1.094c-1.701,0-3.342,0.203-4.92,0.607
					c-1.582,0.406-3.082,0.972-4.496,1.701c-1.42,0.728-2.777,1.579-4.07,2.551v45.323H728.85z"/>
				<path fill="#A67C52" d="M828.607,336.603c-7.211,0-12.961-0.95-17.254-2.855c-4.295-1.903-7.395-5.286-9.297-10.146
					c-1.904-4.86-2.854-11.583-2.854-20.17c0-8.83,0.889-15.675,2.672-20.534c1.781-4.861,4.779-8.263,8.992-10.207
					c4.211-1.944,9.922-2.916,17.133-2.916c6.479,0,11.664,0.648,15.553,1.943c3.887,1.298,6.701,3.566,8.443,6.805
					c1.742,3.241,2.613,7.818,2.613,13.73c0,4.375-0.871,7.837-2.613,10.389c-1.742,2.553-4.189,4.375-7.35,5.469
					c-3.158,1.093-6.887,1.641-11.18,1.641h-16.404c0.164,3.322,0.67,5.974,1.52,7.958c0.852,1.986,2.43,3.401,4.74,4.252
					c2.307,0.853,5.65,1.277,10.023,1.277h19.078v10.57c-3.16,0.65-6.623,1.277-10.391,1.884
					C838.268,336.298,833.789,336.603,828.607,336.603z M816.82,299.056h14.824c2.432,0,4.211-0.486,5.346-1.457
					c1.135-0.972,1.701-2.714,1.701-5.226c0-2.35-0.363-4.231-1.092-5.649c-0.73-1.417-1.865-2.431-3.402-3.037
					c-1.541-0.609-3.607-0.911-6.197-0.911c-2.756,0-4.941,0.466-6.563,1.396c-1.621,0.932-2.795,2.572-3.523,4.921
					C817.186,291.443,816.82,294.764,816.82,299.056z"/>
				<path fill="#A67C52" d="M928.852,336.724c-5.268,0-9.904-0.607-13.914-1.822s-7.412-3.443-10.207-6.685
					c-2.795-3.236-4.902-7.876-6.318-13.91c-1.418-6.034-2.127-13.872-2.127-23.514c0-9.313,0.748-16.95,2.248-22.903
					c1.498-5.955,3.664-10.572,6.502-13.853c2.834-3.28,6.275-5.568,10.328-6.865c4.049-1.295,8.627-1.944,13.73-1.944
					c4.049,0,7.836,0.225,11.361,0.668c3.523,0.446,6.701,0.973,9.537,1.58c2.834,0.607,5.225,1.275,7.17,2.005v13.974
					c-1.457-0.323-3.424-0.646-5.893-0.972c-2.473-0.323-5.287-0.587-8.445-0.79c-3.16-0.201-6.48-0.304-9.965-0.304
					c-3.402,0-6.299,0.385-8.688,1.153c-2.391,0.771-4.295,2.189-5.711,4.255c-1.418,2.065-2.473,5.042-3.16,8.93
					s-1.031,8.951-1.031,15.189c0,5.994,0.303,10.935,0.91,14.823c0.607,3.888,1.6,6.906,2.977,9.053s3.26,3.646,5.65,4.496
					c2.389,0.851,5.408,1.275,9.053,1.275c6.156,0,11.158-0.121,15.008-0.364c3.846-0.244,6.943-0.525,9.295-0.851v13.853
					c-2.188,0.729-4.699,1.356-7.533,1.884c-2.836,0.527-5.955,0.93-9.357,1.213C936.871,336.581,933.061,336.724,928.852,336.724z"
					/>
				<path fill="#A67C52" d="M996.896,336.724c-2.352,0-4.762-0.061-7.23-0.182c-2.473-0.121-4.982-0.326-7.533-0.608
					c-2.553-0.281-4.965-0.606-7.23-0.972c-2.268-0.364-4.334-0.79-6.197-1.275V319.47c2.43,0.243,5.184,0.445,8.262,0.608
					c3.08,0.162,6.277,0.283,9.6,0.364c3.32,0.081,6.48,0.121,9.479,0.121c3.078,0,5.73-0.263,7.959-0.79
					c2.229-0.525,3.949-1.459,5.164-2.795s1.822-3.179,1.822-5.527v-3.281c0-2.674-0.789-4.719-2.369-6.136
					c-1.58-1.418-3.828-2.127-6.744-2.127h-7.654c-8.588,0-15.17-1.884-19.744-5.65c-4.578-3.769-6.867-10.186-6.867-19.26v-4.374
					c0-8.749,2.51-15.146,7.535-19.198c5.021-4.05,12.189-6.075,21.506-6.075c3.32,0,6.621,0.163,9.904,0.485
					c3.279,0.324,6.439,0.71,9.477,1.155c3.039,0.445,5.65,0.911,7.838,1.396v14.217c-3.727-0.242-7.879-0.485-12.455-0.729
					c-4.578-0.242-8.811-0.364-12.697-0.364c-2.756,0-5.207,0.264-7.352,0.79c-2.148,0.527-3.789,1.519-4.922,2.978
					c-1.135,1.458-1.701,3.523-1.701,6.196v2.431c0,3.159,0.891,5.428,2.674,6.806c1.781,1.376,4.414,2.065,7.898,2.065h8.869
					c5.428,0,9.902,0.992,13.428,2.977c3.523,1.985,6.154,4.718,7.898,8.201c1.74,3.482,2.611,7.453,2.611,11.907v5.104
					c0,7.048-1.316,12.436-3.947,16.16c-2.635,3.727-6.279,6.257-10.938,7.594S1003.133,336.724,996.896,336.724z"/>
				<path fill="#A67C52" d="M1068.463,336.724c-2.352,0-4.76-0.061-7.23-0.182c-2.473-0.121-4.98-0.326-7.533-0.608
					c-2.551-0.281-4.963-0.606-7.23-0.972c-2.268-0.364-4.332-0.79-6.197-1.275V319.47c2.432,0.243,5.186,0.445,8.264,0.608
					c3.078,0.162,6.277,0.283,9.6,0.364c3.32,0.081,6.48,0.121,9.479,0.121c3.076,0,5.729-0.263,7.957-0.79
					c2.229-0.525,3.949-1.459,5.166-2.795c1.215-1.336,1.82-3.179,1.82-5.527v-3.281c0-2.674-0.789-4.719-2.367-6.136
					c-1.58-1.418-3.828-2.127-6.744-2.127h-7.656c-8.586,0-15.168-1.884-19.744-5.65c-4.578-3.769-6.865-10.186-6.865-19.26v-4.374
					c0-8.749,2.51-15.146,7.533-19.198c5.021-4.05,12.191-6.075,21.506-6.075c3.322,0,6.623,0.163,9.904,0.485
					c3.281,0.324,6.439,0.71,9.477,1.155c3.039,0.445,5.652,0.911,7.838,1.396v14.217c-3.727-0.242-7.879-0.485-12.455-0.729
					c-4.576-0.242-8.809-0.364-12.697-0.364c-2.754,0-5.205,0.264-7.352,0.79c-2.146,0.527-3.787,1.519-4.92,2.978
					c-1.137,1.458-1.703,3.523-1.703,6.196v2.431c0,3.159,0.893,5.428,2.676,6.806c1.779,1.376,4.412,2.065,7.896,2.065h8.871
					c5.426,0,9.902,0.992,13.426,2.977c3.523,1.985,6.156,4.718,7.898,8.201c1.742,3.482,2.613,7.453,2.613,11.907v5.104
					c0,7.048-1.318,12.436-3.949,16.16c-2.633,3.727-6.279,6.257-10.938,7.594S1074.699,336.724,1068.463,336.724z"/>
			</g>
			<g>
				<path fill="#754C24" d="M507.458,334.46v-89.918h37.183c3.563,0,6.884,0.426,9.964,1.275c3.077,0.851,5.791,2.329,8.141,4.436
					c2.349,2.107,4.192,5.023,5.529,8.749c1.336,3.726,2.005,8.506,2.005,14.339c0,4.131-0.406,7.654-1.216,10.57
					c-0.811,2.917-1.883,5.307-3.22,7.169c-1.337,1.864-2.855,3.362-4.557,4.496c-1.701,1.137-3.443,2.065-5.225,2.795
					l16.769,36.089h-18.349l-14.459-33.293c-0.973,0-2.087-0.021-3.342-0.063c-1.257-0.04-2.532-0.061-3.827-0.061
					c-1.297,0-2.594,0-3.889,0c-1.297,0-2.472-0.04-3.523-0.121v33.537H507.458z M525.442,286.706h16.039
					c1.619,0,3.077-0.201,4.374-0.607c1.295-0.404,2.43-1.113,3.402-2.126s1.72-2.37,2.248-4.071c0.525-1.7,0.79-3.889,0.79-6.561
					c0-2.511-0.265-4.598-0.79-6.259c-0.528-1.659-1.275-2.956-2.248-3.889c-0.973-0.931-2.107-1.579-3.402-1.943
					c-1.297-0.365-2.755-0.547-4.374-0.547h-16.039V286.706z"/>
				<path fill="#754C24" d="M609.041,335.066c-7.211,0-12.962-0.95-17.255-2.855c-4.294-1.903-7.393-5.286-9.296-10.146
					c-1.903-4.861-2.854-11.583-2.854-20.17c0-8.83,0.891-15.675,2.673-20.534c1.781-4.861,4.779-8.263,8.991-10.207
					s9.923-2.916,17.134-2.916c6.479,0,11.665,0.648,15.553,1.943c3.889,1.298,6.702,3.566,8.445,6.805
					c1.741,3.24,2.612,7.818,2.612,13.73c0,4.375-0.871,7.837-2.612,10.389c-1.743,2.553-4.192,4.375-7.352,5.469
					c-3.159,1.093-6.886,1.641-11.179,1.641h-16.404c0.162,3.322,0.668,5.974,1.52,7.958c0.851,1.986,2.43,3.401,4.738,4.252
					c2.31,0.853,5.65,1.277,10.025,1.277h19.076v10.57c-3.159,0.65-6.622,1.277-10.389,1.884S614.225,335.066,609.041,335.066z
					 M597.255,297.52h14.823c2.431,0,4.212-0.486,5.348-1.457c1.133-0.972,1.7-2.714,1.7-5.226c0-2.349-0.364-4.231-1.093-5.649
					c-0.729-1.416-1.865-2.431-3.403-3.038c-1.539-0.608-3.605-0.91-6.196-0.91c-2.755,0-4.942,0.466-6.562,1.396
					c-1.622,0.932-2.795,2.572-3.523,4.921C597.619,289.907,597.255,293.228,597.255,297.52z"/>
				<path fill="#754C24" d="M650.475,334.46v-50.792h-9.236v-11.543l9.236-2.916v-7.048c0-5.347,0.729-9.558,2.188-12.638
					c1.457-3.077,3.662-5.264,6.621-6.562c2.955-1.294,6.662-1.943,11.119-1.943c3.32,0,6.418,0.183,9.295,0.546
					c2.875,0.365,5.203,0.872,6.986,1.52v13.001c-1.297-0.079-2.898-0.16-4.799-0.242c-1.906-0.081-3.668-0.121-5.287-0.121
					c-2.025,0-3.627,0.324-4.799,0.971c-1.176,0.649-2.027,1.641-2.553,2.978c-0.527,1.336-0.789,3.019-0.789,5.043v4.496h34.994
					v14.459h-34.994v50.792H650.475z M697.012,259.609c-1.701,0-2.553-0.81-2.553-2.431v-11.908c0-1.701,0.852-2.551,2.553-2.551
					h13.852c0.809,0,1.396,0.242,1.764,0.729c0.363,0.485,0.545,1.093,0.545,1.821v11.908c0,1.621-0.77,2.431-2.309,2.431H697.012z
					 M694.824,334.46v-65.251h17.984v65.251H694.824z"/>
				<path fill="#754C24" d="M726.66,334.46v-65.251h14.824l3.158,6.683c2.43-2.023,5.486-3.828,9.174-5.406
					c3.686-1.58,7.475-2.37,11.361-2.37c5.348,0,9.479,1.055,12.395,3.159c2.916,2.106,4.961,4.921,6.137,8.445
					c1.174,3.523,1.762,7.433,1.762,11.726v43.015h-17.984v-40.705c0-2.107-0.385-3.848-1.152-5.226
					c-0.773-1.377-1.844-2.431-3.221-3.159c-1.379-0.729-3.039-1.094-4.982-1.094c-1.701,0-3.342,0.203-4.922,0.607
					c-1.58,0.406-3.08,0.972-4.494,1.701c-1.42,0.728-2.777,1.579-4.072,2.552v45.323H726.66z"/>
				<path fill="#754C24" d="M826.418,335.066c-7.211,0-12.961-0.95-17.254-2.855c-4.295-1.903-7.395-5.286-9.297-10.146
					c-1.904-4.861-2.855-11.583-2.855-20.17c0-8.83,0.891-15.675,2.674-20.534c1.781-4.861,4.777-8.263,8.99-10.207
					s9.924-2.916,17.135-2.916c6.479,0,11.664,0.648,15.553,1.943c3.887,1.298,6.701,3.566,8.445,6.805
					c1.74,3.24,2.611,7.818,2.611,13.73c0,4.375-0.871,7.837-2.611,10.389c-1.744,2.553-4.191,4.375-7.352,5.469
					c-3.16,1.093-6.887,1.641-11.18,1.641h-16.404c0.162,3.322,0.668,5.974,1.52,7.958c0.852,1.986,2.43,3.401,4.738,4.252
					c2.309,0.853,5.652,1.277,10.025,1.277h19.076v10.57c-3.158,0.65-6.623,1.277-10.389,1.884S831.6,335.066,826.418,335.066z
					 M814.631,297.52h14.824c2.432,0,4.211-0.486,5.346-1.457c1.135-0.972,1.701-2.714,1.701-5.226c0-2.349-0.363-4.231-1.092-5.649
					c-0.73-1.416-1.865-2.431-3.404-3.038c-1.539-0.608-3.605-0.91-6.195-0.91c-2.756,0-4.943,0.466-6.563,1.396
					c-1.621,0.932-2.795,2.572-3.523,4.921C814.996,289.907,814.631,293.228,814.631,297.52z"/>
				<path fill="#754C24" d="M926.66,335.189c-5.266,0-9.902-0.608-13.912-1.824c-4.01-1.215-7.412-3.443-10.207-6.685
					c-2.795-3.236-4.902-7.876-6.318-13.91c-1.418-6.034-2.127-13.872-2.127-23.513c0-9.314,0.748-16.951,2.248-22.904
					c1.498-5.955,3.664-10.571,6.502-13.853c2.834-3.28,6.275-5.568,10.328-6.865c4.049-1.295,8.627-1.944,13.73-1.944
					c4.049,0,7.836,0.225,11.361,0.668c3.523,0.446,6.701,0.973,9.537,1.58c2.834,0.607,5.225,1.275,7.168,2.005v13.974
					c-1.455-0.323-3.422-0.646-5.891-0.972c-2.473-0.323-5.287-0.587-8.447-0.79c-3.158-0.201-6.48-0.304-9.963-0.304
					c-3.402,0-6.299,0.385-8.688,1.153c-2.391,0.771-4.295,2.188-5.711,4.255c-1.418,2.065-2.473,5.042-3.16,8.93
					s-1.031,8.951-1.031,15.189c0,5.994,0.303,10.935,0.91,14.823c0.607,3.888,1.6,6.906,2.977,9.053s3.26,3.646,5.65,4.496
					c2.389,0.851,5.408,1.275,9.053,1.275c6.156,0,11.158-0.121,15.008-0.364c3.846-0.244,6.943-0.525,9.293-0.851v13.853
					c-2.186,0.729-4.697,1.356-7.531,1.884c-2.838,0.527-5.955,0.93-9.357,1.213C934.68,335.046,930.871,335.189,926.66,335.189z"/>
				<path fill="#754C24" d="M994.705,335.189c-2.352,0-4.76-0.063-7.23-0.184c-2.473-0.121-4.98-0.325-7.533-0.608
					c-2.551-0.281-4.963-0.606-7.23-0.972c-2.268-0.364-4.332-0.79-6.195-1.275v-14.217c2.43,0.243,5.184,0.445,8.262,0.608
					c3.078,0.162,6.277,0.283,9.6,0.364c3.32,0.081,6.48,0.121,9.479,0.121c3.076,0,5.729-0.263,7.957-0.79
					c2.229-0.525,3.949-1.459,5.166-2.795c1.215-1.336,1.82-3.179,1.82-5.527v-3.281c0-2.674-0.789-4.719-2.367-6.136
					c-1.58-1.418-3.828-2.127-6.744-2.127h-7.656c-8.586,0-15.168-1.884-19.744-5.65c-4.578-3.768-6.867-10.186-6.867-19.26v-4.374
					c0-8.749,2.512-15.146,7.535-19.198c5.021-4.05,12.191-6.075,21.506-6.075c3.322,0,6.623,0.163,9.904,0.485
					c3.281,0.325,6.439,0.71,9.479,1.155c3.037,0.446,5.65,0.911,7.836,1.396v14.217c-3.727-0.242-7.879-0.485-12.455-0.729
					c-4.576-0.242-8.809-0.364-12.697-0.364c-2.754,0-5.205,0.264-7.352,0.79c-2.146,0.527-3.787,1.519-4.92,2.978
					c-1.137,1.458-1.701,3.523-1.701,6.196v2.431c0,3.159,0.891,5.428,2.674,6.806c1.779,1.376,4.412,2.065,7.896,2.065h8.871
					c5.426,0,9.902,0.992,13.426,2.977c3.525,1.985,6.156,4.719,7.898,8.201s2.613,7.453,2.613,11.907v5.104
					c0,7.048-1.318,12.436-3.949,16.16c-2.633,3.727-6.279,6.257-10.938,7.594C1006.389,334.521,1000.941,335.189,994.705,335.189z"
					/>
				<path fill="#754C24" d="M1066.273,335.189c-2.352,0-4.76-0.063-7.23-0.184c-2.473-0.121-4.982-0.325-7.533-0.608
					c-2.553-0.281-4.963-0.606-7.23-0.972c-2.268-0.364-4.334-0.79-6.197-1.275v-14.217c2.432,0.243,5.184,0.445,8.264,0.608
					c3.078,0.162,6.277,0.283,9.6,0.364c3.32,0.081,6.48,0.121,9.479,0.121c3.076,0,5.729-0.263,7.957-0.79
					c2.229-0.525,3.949-1.459,5.166-2.795c1.215-1.336,1.82-3.179,1.82-5.527v-3.281c0-2.674-0.789-4.719-2.367-6.136
					c-1.58-1.418-3.828-2.127-6.744-2.127h-7.656c-8.586,0-15.17-1.884-19.744-5.65c-4.578-3.768-6.867-10.186-6.867-19.26v-4.374
					c0-8.749,2.512-15.146,7.535-19.198c5.021-4.05,12.189-6.075,21.506-6.075c3.322,0,6.623,0.163,9.904,0.485
					c3.281,0.325,6.439,0.71,9.477,1.155c3.039,0.446,5.652,0.911,7.838,1.396v14.217c-3.727-0.242-7.879-0.485-12.455-0.729
					c-4.576-0.242-8.809-0.364-12.697-0.364c-2.754,0-5.205,0.264-7.352,0.79c-2.146,0.527-3.787,1.519-4.92,2.978
					c-1.137,1.458-1.703,3.523-1.703,6.196v2.431c0,3.159,0.893,5.428,2.676,6.806c1.779,1.376,4.412,2.065,7.896,2.065h8.871
					c5.426,0,9.902,0.992,13.426,2.977c3.523,1.985,6.156,4.719,7.898,8.201s2.613,7.453,2.613,11.907v5.104
					c0,7.048-1.318,12.436-3.949,16.16c-2.635,3.727-6.279,6.257-10.938,7.594C1077.957,334.521,1072.51,335.189,1066.273,335.189z"
					/>
			</g>
		</g>
		<g>
			<g>
				<path fill="#754C24" d="M512.003,419.749v-31.967h5.121l0.991,2.105c0.522-0.412,1.102-0.805,1.734-1.176
					c0.634-0.373,1.322-0.676,2.065-0.91c0.743-0.232,1.528-0.35,2.354-0.35c1.349,0,2.525,0.262,3.531,0.783
					c1.005,0.523,1.823,1.281,2.457,2.271c0.633,0.992,1.102,2.197,1.404,3.615s0.454,3.008,0.454,4.77
					c0,2.369-0.234,4.406-0.702,6.113s-1.273,3.008-2.416,3.902s-2.719,1.342-4.729,1.342c-1.047,0-2.113-0.123-3.201-0.371
					s-2.072-0.605-2.953-1.074v10.945H512.003z M522.287,405.21c0.633,0,1.239-0.17,1.817-0.516
					c0.578-0.344,1.039-0.971,1.383-1.879c0.345-0.908,0.517-2.217,0.517-3.924c0-1.652-0.158-2.953-0.475-3.902
					c-0.317-0.951-0.751-1.625-1.301-2.023c-0.552-0.4-1.198-0.6-1.941-0.6c-0.854,0-1.639,0.139-2.354,0.412
					c-0.716,0.275-1.321,0.553-1.817,0.826v10.533c0.551,0.33,1.198,0.592,1.941,0.783C520.8,405.114,521.543,405.21,522.287,405.21
					z"/>
				<path fill="#754C24" d="M545.663,410.167c-1.817,0-3.373-0.186-4.667-0.557c-1.294-0.373-2.348-0.998-3.159-1.881
					c-0.813-0.881-1.404-2.051-1.776-3.51c-0.371-1.459-0.558-3.264-0.558-5.41c0-2.258,0.187-4.123,0.558-5.598
					c0.372-1.473,0.964-2.629,1.776-3.469c0.812-0.84,1.872-1.432,3.18-1.775s2.856-0.516,4.646-0.516
					c1.845,0,3.414,0.178,4.709,0.535c1.293,0.359,2.347,0.957,3.159,1.797c0.812,0.84,1.404,1.998,1.776,3.471
					c0.371,1.473,0.557,3.324,0.557,5.555c0,2.203-0.179,4.041-0.536,5.514c-0.358,1.473-0.937,2.637-1.735,3.49
					s-1.852,1.459-3.159,1.816S547.535,410.167,545.663,410.167z M545.663,405.294c0.743,0,1.369-0.068,1.88-0.207
					c0.509-0.137,0.922-0.42,1.238-0.848c0.316-0.426,0.558-1.08,0.723-1.961c0.166-0.881,0.248-2.037,0.248-3.469
					c0-1.459-0.082-2.623-0.248-3.49c-0.165-0.867-0.406-1.514-0.723-1.941c-0.316-0.426-0.729-0.709-1.238-0.846
					c-0.511-0.139-1.137-0.207-1.88-0.207c-0.716,0-1.328,0.068-1.838,0.207c-0.51,0.137-0.929,0.42-1.26,0.846
					c-0.33,0.428-0.571,1.074-0.723,1.941s-0.227,2.031-0.227,3.49c0,1.432,0.075,2.588,0.227,3.469s0.393,1.535,0.723,1.961
					c0.331,0.428,0.75,0.711,1.26,0.848C544.335,405.226,544.947,405.294,545.663,405.294z"/>
				<path fill="#754C24" d="M567.966,410.208c-0.688,0-1.432-0.02-2.23-0.063c-0.799-0.041-1.597-0.102-2.396-0.186
					c-0.799-0.082-1.542-0.186-2.23-0.309c-0.688-0.125-1.267-0.27-1.734-0.434v-3.594h9.83c0.578,0,1.053-0.049,1.425-0.145
					c0.371-0.096,0.646-0.275,0.826-0.537c0.179-0.262,0.269-0.641,0.269-1.137v-0.701c0-0.551-0.18-0.977-0.537-1.281
					c-0.358-0.303-1.02-0.453-1.982-0.453h-3.47c-1.267,0-2.409-0.193-3.428-0.578c-1.02-0.385-1.824-1.02-2.416-1.9
					c-0.593-0.881-0.889-2.064-0.889-3.553v-1.279c0-1.404,0.275-2.588,0.826-3.553c0.551-0.963,1.473-1.693,2.768-2.188
					c1.294-0.496,3.069-0.744,5.328-0.744c0.908,0,1.879,0.049,2.911,0.145c1.033,0.098,2.01,0.221,2.933,0.371
					c0.922,0.152,1.658,0.324,2.21,0.518v3.592h-9.293c-0.799,0-1.404,0.131-1.817,0.393s-0.619,0.752-0.619,1.467v0.66
					c0,0.496,0.096,0.861,0.289,1.096c0.192,0.234,0.488,0.398,0.888,0.494c0.398,0.098,0.901,0.145,1.508,0.145h3.552
					c2.257,0,3.902,0.518,4.936,1.549c1.032,1.033,1.549,2.459,1.549,4.275v1.982c0,1.486-0.352,2.664-1.054,3.531
					s-1.721,1.486-3.056,1.859C571.524,410.022,569.893,410.208,567.966,410.208z"/>
				<path fill="#754C24" d="M589.194,409.96c-1.708,0-3.092-0.248-4.151-0.742c-1.061-0.496-1.824-1.322-2.292-2.479
					c-0.469-1.156-0.675-2.713-0.619-4.668l0.206-9.375h-3.47v-3.924l3.677-0.99l0.825-6.195h4.833v6.195h5.203v4.914h-5.203v9.334
					c0,0.605,0.055,1.102,0.165,1.486c0.109,0.387,0.269,0.697,0.475,0.93c0.207,0.234,0.447,0.406,0.723,0.518
					c0.275,0.109,0.551,0.178,0.826,0.205l2.809,0.248v4.543H589.194z"/>
				<path fill="#754C24" d="M620.046,410.208c-0.964,0-1.832-0.109-2.603-0.33s-1.466-0.51-2.085-0.867
					c-0.62-0.357-1.205-0.744-1.756-1.156l-0.991,2.105h-5.121v-31.512h6.112v10.861c0.881-0.467,1.872-0.895,2.974-1.279
					c1.102-0.387,2.161-0.578,3.181-0.578c1.899,0,3.421,0.398,4.563,1.197s1.976,2.045,2.499,3.738
					c0.522,1.693,0.784,3.93,0.784,6.711c0,2.479-0.269,4.543-0.805,6.195c-0.537,1.652-1.363,2.885-2.479,3.695
					C623.205,409.802,621.78,410.208,620.046,410.208z M617.774,405.21c0.716,0,1.355-0.186,1.92-0.557s1.005-1.025,1.322-1.961
					c0.316-0.938,0.475-2.23,0.475-3.883c0-1.928-0.172-3.338-0.517-4.234c-0.344-0.895-0.799-1.486-1.362-1.775
					c-0.564-0.289-1.178-0.434-1.838-0.434c-0.826,0-1.591,0.131-2.292,0.393c-0.702,0.262-1.329,0.543-1.88,0.846v10.533
					c0.522,0.275,1.122,0.523,1.797,0.742C616.073,405.101,616.865,405.21,617.774,405.21z"/>
				<path fill="#754C24" d="M637.929,410.208c-1.982,0-3.538-0.584-4.667-1.756c-1.13-1.17-1.693-2.828-1.693-4.977v-15.693h6.112
					v13.877c0,1.238,0.296,2.072,0.888,2.498c0.592,0.428,1.37,0.641,2.334,0.641c0.769,0,1.562-0.145,2.375-0.434
					c0.811-0.289,1.533-0.682,2.168-1.178v-15.404h6.154v22.178h-5.08l-1.074-2.271c-0.992,0.662-2.135,1.246-3.428,1.756
					C640.723,409.954,639.36,410.208,637.929,410.208z"/>
				<path fill="#754C24" d="M656.967,384.519c-0.578,0-0.867-0.275-0.867-0.826v-4.047c0-0.578,0.289-0.867,0.867-0.867h4.709
					c0.248,0,0.439,0.082,0.578,0.248c0.137,0.164,0.207,0.371,0.207,0.619v4.047c0,0.551-0.262,0.826-0.785,0.826H656.967z
					 M656.225,409.96v-22.178h6.111v22.178H656.225z"/>
				<path fill="#754C24" d="M673.982,410.044c-1.568,0-2.871-0.256-3.902-0.766c-1.033-0.508-1.797-1.293-2.293-2.354
					s-0.742-2.43-0.742-4.109v-24.367h6.111v23.459c0,0.826,0.084,1.48,0.248,1.961c0.166,0.482,0.42,0.834,0.764,1.053
					c0.344,0.221,0.777,0.373,1.301,0.455l1.693,0.248v4.42H673.982z"/>
				<path fill="#754C24" d="M687.24,410.208c-1.734,0-3.195-0.365-4.379-1.094c-1.184-0.73-2.072-1.914-2.664-3.553
					c-0.592-1.637-0.887-3.793-0.887-6.463c0-2.754,0.254-4.984,0.764-6.691s1.369-2.959,2.582-3.758
					c1.211-0.799,2.877-1.197,4.996-1.197c1.02,0,2.023,0.102,3.016,0.309c0.99,0.207,1.871,0.447,2.643,0.723v-10.035h6.154v31.512
					h-5.162l-0.992-2.105c-0.469,0.439-1.039,0.84-1.713,1.197c-0.676,0.357-1.385,0.641-2.127,0.848
					C688.727,410.104,687.982,410.208,687.24,410.208z M689.387,405.294c0.826,0,1.576-0.139,2.252-0.414
					c0.674-0.273,1.232-0.551,1.672-0.826v-11.15c-0.551-0.193-1.129-0.385-1.734-0.578s-1.252-0.289-1.941-0.289
					c-1.018,0-1.838,0.18-2.457,0.537s-1.066,1.025-1.342,2.002c-0.275,0.979-0.414,2.389-0.414,4.234
					c0,1.707,0.131,3.035,0.393,3.984c0.262,0.951,0.682,1.605,1.26,1.963S688.424,405.294,689.387,405.294z"/>
				<path fill="#754C24" d="M720.982,410.208c-1.982,0-3.537-0.584-4.666-1.756c-1.129-1.17-1.693-2.828-1.693-4.977v-15.693h6.111
					v13.877c0,1.238,0.297,2.072,0.889,2.498c0.592,0.428,1.369,0.641,2.334,0.641c0.77,0,1.563-0.145,2.375-0.434
					c0.811-0.289,1.533-0.682,2.168-1.178v-15.404h6.154v22.178h-5.08l-1.074-2.271c-0.992,0.662-2.135,1.246-3.428,1.756
					C723.777,409.954,722.414,410.208,720.982,410.208z"/>
				<path fill="#754C24" d="M739.279,409.96v-22.178h5.037l1.074,2.271c0.826-0.688,1.865-1.301,3.119-1.838
					c1.252-0.537,2.539-0.807,3.861-0.807c1.816,0,3.221,0.359,4.213,1.074c0.99,0.717,1.686,1.674,2.086,2.871
					c0.398,1.197,0.598,2.525,0.598,3.984v14.621h-6.111v-13.836c0-0.715-0.131-1.307-0.393-1.775s-0.627-0.826-1.096-1.074
					c-0.467-0.248-1.031-0.371-1.693-0.371c-0.578,0-1.135,0.068-1.672,0.207c-0.537,0.137-1.047,0.33-1.527,0.578
					c-0.482,0.248-0.943,0.537-1.385,0.867v15.404H739.279z"/>
				<path fill="#754C24" d="M770.131,410.208c-1.982,0-3.539-0.584-4.668-1.756c-1.129-1.17-1.693-2.828-1.693-4.977v-15.693h6.113
					v13.877c0,1.238,0.295,2.072,0.889,2.498c0.592,0.428,1.369,0.641,2.332,0.641c0.771,0,1.563-0.145,2.375-0.434
					s1.535-0.682,2.168-1.178v-15.404h6.154v22.178h-5.08l-1.074-2.271c-0.99,0.662-2.133,1.246-3.428,1.756
					S771.563,410.208,770.131,410.208z"/>
				<path fill="#754C24" d="M796.48,410.208c-0.689,0-1.434-0.02-2.23-0.063c-0.799-0.041-1.598-0.102-2.396-0.186
					c-0.799-0.082-1.541-0.186-2.23-0.309c-0.688-0.125-1.266-0.27-1.734-0.434v-3.594h9.83c0.578,0,1.053-0.049,1.426-0.145
					c0.371-0.096,0.646-0.275,0.824-0.537c0.18-0.262,0.27-0.641,0.27-1.137v-0.701c0-0.551-0.18-0.977-0.537-1.281
					c-0.357-0.303-1.02-0.453-1.982-0.453h-3.469c-1.268,0-2.41-0.193-3.428-0.578c-1.02-0.385-1.826-1.02-2.416-1.9
					c-0.594-0.881-0.889-2.064-0.889-3.553v-1.279c0-1.404,0.275-2.588,0.826-3.553c0.551-0.963,1.473-1.693,2.768-2.188
					c1.293-0.496,3.068-0.744,5.326-0.744c0.91,0,1.881,0.049,2.912,0.145c1.033,0.098,2.01,0.221,2.934,0.371
					c0.922,0.152,1.658,0.324,2.209,0.518v3.592h-9.293c-0.799,0-1.404,0.131-1.816,0.393c-0.414,0.262-0.621,0.752-0.621,1.467
					v0.66c0,0.496,0.098,0.861,0.289,1.096c0.193,0.234,0.49,0.398,0.889,0.494c0.398,0.098,0.902,0.145,1.508,0.145H799
					c2.256,0,3.902,0.518,4.936,1.549c1.031,1.033,1.547,2.459,1.547,4.275v1.982c0,1.486-0.35,2.664-1.053,3.531
					c-0.701,0.867-1.721,1.486-3.057,1.859C800.037,410.022,798.406,410.208,796.48,410.208z"/>
				<path fill="#754C24" d="M818.617,410.167c-2.451,0-4.406-0.324-5.865-0.971s-2.512-1.797-3.158-3.449
					c-0.648-1.652-0.971-3.938-0.971-6.855c0-3,0.303-5.328,0.908-6.98s1.625-2.809,3.057-3.469s3.373-0.99,5.822-0.99
					c2.203,0,3.965,0.221,5.287,0.66c1.322,0.441,2.277,1.211,2.871,2.313c0.592,1.102,0.887,2.658,0.887,4.668
					c0,1.486-0.295,2.664-0.887,3.531c-0.594,0.867-1.426,1.486-2.5,1.857c-1.072,0.373-2.34,0.559-3.799,0.559h-5.576
					c0.055,1.129,0.229,2.029,0.518,2.705c0.289,0.674,0.824,1.156,1.609,1.445s1.922,0.434,3.408,0.434h6.484v3.594
					c-1.074,0.221-2.252,0.434-3.531,0.639C821.9,410.063,820.379,410.167,818.617,410.167z M814.611,397.405h5.039
					c0.826,0,1.432-0.166,1.816-0.496s0.578-0.922,0.578-1.775c0-0.799-0.123-1.439-0.371-1.922
					c-0.248-0.48-0.633-0.824-1.156-1.031s-1.227-0.311-2.107-0.311c-0.936,0-1.68,0.158-2.229,0.475
					c-0.553,0.318-0.951,0.875-1.199,1.674S814.611,395.946,814.611,397.405z"/>
				<path fill="#754C24" d="M838.73,410.208c-1.734,0-3.195-0.365-4.379-1.094c-1.184-0.73-2.072-1.914-2.664-3.553
					c-0.592-1.637-0.887-3.793-0.887-6.463c0-2.754,0.254-4.984,0.764-6.691s1.369-2.959,2.582-3.758
					c1.211-0.799,2.877-1.197,4.996-1.197c1.02,0,2.023,0.102,3.016,0.309c0.99,0.207,1.871,0.447,2.643,0.723v-10.035h6.154v31.512
					h-5.162l-0.992-2.105c-0.469,0.439-1.039,0.84-1.713,1.197c-0.676,0.357-1.385,0.641-2.127,0.848
					C840.217,410.104,839.473,410.208,838.73,410.208z M840.877,405.294c0.826,0,1.576-0.139,2.252-0.414
					c0.674-0.273,1.232-0.551,1.672-0.826v-11.15c-0.551-0.193-1.129-0.385-1.734-0.578s-1.252-0.289-1.941-0.289
					c-1.018,0-1.838,0.18-2.457,0.537s-1.066,1.025-1.342,2.002c-0.275,0.979-0.414,2.389-0.414,4.234
					c0,1.707,0.131,3.035,0.393,3.984c0.262,0.951,0.682,1.605,1.26,1.963S839.914,405.294,840.877,405.294z"/>
				<path fill="#754C24" d="M874.828,410.208c-1.35,0-2.596-0.18-3.738-0.537s-2.127-0.955-2.953-1.797
					c-0.826-0.838-1.467-1.982-1.92-3.428c-0.455-1.445-0.682-3.27-0.682-5.473c0-2.256,0.205-4.129,0.619-5.617
					c0.412-1.486,1.025-2.662,1.838-3.531c0.813-0.867,1.811-1.479,2.994-1.838c1.184-0.357,2.52-0.535,4.006-0.535
					c1.35,0,2.637,0.076,3.861,0.227c1.227,0.15,2.514,0.42,3.863,0.805v3.512h-5.824c-1.268,0-2.285,0.186-3.057,0.557
					s-1.328,1.061-1.672,2.064c-0.346,1.006-0.518,2.445-0.518,4.316c0,1.846,0.172,3.25,0.518,4.213
					c0.344,0.965,0.908,1.611,1.693,1.941c0.783,0.33,1.822,0.496,3.117,0.496h6.072v3.469c-0.689,0.221-1.488,0.42-2.396,0.6
					s-1.865,0.316-2.869,0.412C876.775,410.159,875.791,410.208,874.828,410.208z"/>
				<path fill="#754C24" d="M894.486,410.208c-0.688,0-1.432-0.02-2.23-0.063c-0.799-0.041-1.598-0.102-2.395-0.186
					c-0.799-0.082-1.543-0.186-2.23-0.309c-0.689-0.125-1.268-0.27-1.734-0.434v-3.594h9.828c0.58,0,1.055-0.049,1.426-0.145
					s0.646-0.275,0.826-0.537c0.178-0.262,0.268-0.641,0.268-1.137v-0.701c0-0.551-0.178-0.977-0.535-1.281
					c-0.359-0.303-1.02-0.453-1.984-0.453h-3.469c-1.266,0-2.41-0.193-3.428-0.578c-1.02-0.385-1.824-1.02-2.416-1.9
					s-0.889-2.064-0.889-3.553v-1.279c0-1.404,0.275-2.588,0.826-3.553c0.551-0.963,1.473-1.693,2.768-2.188
					c1.295-0.496,3.07-0.744,5.328-0.744c0.908,0,1.879,0.049,2.912,0.145c1.031,0.098,2.01,0.221,2.932,0.371
					c0.922,0.152,1.658,0.324,2.209,0.518v3.592h-9.291c-0.799,0-1.404,0.131-1.818,0.393c-0.412,0.262-0.619,0.752-0.619,1.467
					v0.66c0,0.496,0.096,0.861,0.289,1.096c0.191,0.234,0.488,0.398,0.889,0.494c0.398,0.098,0.9,0.145,1.506,0.145h3.553
					c2.258,0,3.902,0.518,4.936,1.549c1.033,1.033,1.549,2.459,1.549,4.275v1.982c0,1.486-0.352,2.664-1.053,3.531
					c-0.703,0.867-1.721,1.486-3.057,1.859C898.045,410.022,896.414,410.208,894.486,410.208z"/>
				<path fill="#754C24" d="M915.344,410.208c-0.689,0-1.434-0.02-2.23-0.063c-0.799-0.041-1.598-0.102-2.396-0.186
					c-0.799-0.082-1.541-0.186-2.23-0.309c-0.688-0.125-1.266-0.27-1.734-0.434v-3.594h9.83c0.578,0,1.053-0.049,1.426-0.145
					c0.371-0.096,0.646-0.275,0.824-0.537c0.18-0.262,0.27-0.641,0.27-1.137v-0.701c0-0.551-0.18-0.977-0.537-1.281
					c-0.357-0.303-1.02-0.453-1.982-0.453h-3.469c-1.268,0-2.41-0.193-3.428-0.578c-1.02-0.385-1.826-1.02-2.416-1.9
					c-0.594-0.881-0.889-2.064-0.889-3.553v-1.279c0-1.404,0.275-2.588,0.826-3.553c0.551-0.963,1.473-1.693,2.768-2.188
					c1.293-0.496,3.068-0.744,5.326-0.744c0.91,0,1.881,0.049,2.912,0.145c1.033,0.098,2.01,0.221,2.934,0.371
					c0.922,0.152,1.658,0.324,2.209,0.518v3.592h-9.293c-0.799,0-1.404,0.131-1.816,0.393c-0.414,0.262-0.621,0.752-0.621,1.467
					v0.66c0,0.496,0.098,0.861,0.289,1.096c0.193,0.234,0.49,0.398,0.889,0.494c0.398,0.098,0.902,0.145,1.508,0.145h3.553
					c2.256,0,3.902,0.518,4.936,1.549c1.031,1.033,1.547,2.459,1.547,4.275v1.982c0,1.486-0.35,2.664-1.053,3.531
					c-0.701,0.867-1.721,1.486-3.057,1.859C918.9,410.022,917.27,410.208,915.344,410.208z"/>
				<path fill="#754C24" d="M938.801,409.96v-22.178h4.709l1.404,3.387c0.797-1.02,1.699-1.887,2.705-2.604
					c1.004-0.715,2.195-1.072,3.572-1.072c0.303,0,0.613,0.014,0.93,0.041s0.611,0.082,0.887,0.164v6.279
					c-0.412-0.055-0.846-0.104-1.301-0.145c-0.453-0.043-0.887-0.063-1.301-0.063c-0.799,0-1.521,0.09-2.168,0.268
					c-0.646,0.18-1.238,0.441-1.775,0.785c-0.537,0.346-1.055,0.793-1.549,1.342v13.795H938.801z"/>
				<path fill="#754C24" d="M965.605,410.167c-2.451,0-4.406-0.324-5.865-0.971s-2.512-1.797-3.158-3.449
					c-0.648-1.652-0.971-3.938-0.971-6.855c0-3,0.303-5.328,0.908-6.98s1.625-2.809,3.057-3.469s3.373-0.99,5.822-0.99
					c2.203,0,3.965,0.221,5.287,0.66c1.322,0.441,2.277,1.211,2.871,2.313c0.592,1.102,0.887,2.658,0.887,4.668
					c0,1.486-0.295,2.664-0.887,3.531c-0.594,0.867-1.426,1.486-2.5,1.857c-1.072,0.373-2.34,0.559-3.799,0.559h-5.576
					c0.055,1.129,0.229,2.029,0.518,2.705c0.289,0.674,0.824,1.156,1.609,1.445s1.922,0.434,3.408,0.434h6.484v3.594
					c-1.074,0.221-2.252,0.434-3.531,0.639C968.889,410.063,967.367,410.167,965.605,410.167z M961.6,397.405h5.039
					c0.826,0,1.432-0.166,1.816-0.496s0.578-0.922,0.578-1.775c0-0.799-0.123-1.439-0.371-1.922
					c-0.248-0.48-0.633-0.824-1.156-1.031s-1.227-0.311-2.107-0.311c-0.936,0-1.68,0.158-2.229,0.475
					c-0.553,0.318-0.951,0.875-1.199,1.674S961.6,395.946,961.6,397.405z"/>
				<path fill="#754C24" d="M978.449,409.96v-22.178h5.039l1.074,2.271c0.963-0.717,2.016-1.336,3.158-1.859
					c1.143-0.521,2.555-0.785,4.234-0.785c1.404,0,2.566,0.289,3.49,0.867c0.922,0.58,1.617,1.336,2.086,2.273
					c0.633-0.496,1.369-0.979,2.209-1.447c0.84-0.467,1.74-0.867,2.705-1.197c0.963-0.33,1.914-0.496,2.85-0.496
					c1.789,0,3.201,0.338,4.234,1.012c1.031,0.676,1.754,1.625,2.168,2.852c0.412,1.225,0.619,2.664,0.619,4.314v14.373h-6.113
					v-13.836c0-0.715-0.131-1.307-0.393-1.775s-0.625-0.826-1.094-1.074s-1.033-0.371-1.693-0.371c-0.826,0-1.658,0.172-2.498,0.516
					c-0.84,0.346-1.59,0.75-2.252,1.219c0.055,0.275,0.098,0.545,0.125,0.805c0.027,0.262,0.041,0.531,0.041,0.807v13.711h-6.113
					v-13.836c0-0.715-0.131-1.307-0.393-1.775s-0.625-0.826-1.094-1.074s-1.033-0.371-1.693-0.371c-0.578,0-1.137,0.068-1.672,0.207
					c-0.537,0.137-1.047,0.33-1.529,0.578s-0.943,0.537-1.383,0.867v15.404H978.449z"/>
				<path fill="#754C24" d="M1026.4,410.167c-1.818,0-3.373-0.186-4.668-0.557c-1.295-0.373-2.348-0.998-3.158-1.881
					c-0.813-0.881-1.404-2.051-1.777-3.51c-0.371-1.459-0.557-3.264-0.557-5.41c0-2.258,0.186-4.123,0.557-5.598
					c0.373-1.473,0.965-2.629,1.777-3.469c0.811-0.84,1.871-1.432,3.18-1.775c1.307-0.344,2.855-0.516,4.646-0.516
					c1.844,0,3.414,0.178,4.707,0.535c1.295,0.359,2.348,0.957,3.16,1.797s1.404,1.998,1.775,3.471
					c0.373,1.473,0.559,3.324,0.559,5.555c0,2.203-0.18,4.041-0.537,5.514s-0.936,2.637-1.734,3.49s-1.852,1.459-3.16,1.816
					S1028.271,410.167,1026.4,410.167z M1026.4,405.294c0.742,0,1.369-0.068,1.879-0.207c0.51-0.137,0.922-0.42,1.238-0.848
					c0.316-0.426,0.559-1.08,0.723-1.961c0.166-0.881,0.248-2.037,0.248-3.469c0-1.459-0.082-2.623-0.248-3.49
					c-0.164-0.867-0.406-1.514-0.723-1.941c-0.316-0.426-0.729-0.709-1.238-0.846c-0.51-0.139-1.137-0.207-1.879-0.207
					c-0.717,0-1.33,0.068-1.838,0.207c-0.51,0.137-0.93,0.42-1.26,0.846c-0.33,0.428-0.572,1.074-0.723,1.941
					c-0.152,0.867-0.229,2.031-0.229,3.49c0,1.432,0.076,2.588,0.229,3.469c0.15,0.881,0.393,1.535,0.723,1.961
					c0.33,0.428,0.75,0.711,1.26,0.848C1025.07,405.226,1025.684,405.294,1026.4,405.294z"/>
				<path fill="#754C24" d="M1045.398,409.96l-7.434-22.178h6.318l4.791,16.52l4.916-16.52h6.236l-7.766,22.178H1045.398z"/>
				<path fill="#754C24" d="M1071.625,410.167c-2.451,0-4.406-0.324-5.865-0.971s-2.512-1.797-3.158-3.449
					c-0.648-1.652-0.971-3.938-0.971-6.855c0-3,0.303-5.328,0.908-6.98s1.625-2.809,3.057-3.469s3.373-0.99,5.822-0.99
					c2.203,0,3.965,0.221,5.287,0.66c1.322,0.441,2.277,1.211,2.871,2.313c0.592,1.102,0.887,2.658,0.887,4.668
					c0,1.486-0.295,2.664-0.887,3.531c-0.594,0.867-1.426,1.486-2.5,1.857c-1.072,0.373-2.34,0.559-3.799,0.559h-5.576
					c0.055,1.129,0.229,2.029,0.518,2.705c0.289,0.674,0.824,1.156,1.609,1.445s1.922,0.434,3.408,0.434h6.484v3.594
					c-1.074,0.221-2.252,0.434-3.531,0.639C1074.908,410.063,1073.387,410.167,1071.625,410.167z M1067.619,397.405h5.039
					c0.826,0,1.432-0.166,1.816-0.496s0.578-0.922,0.578-1.775c0-0.799-0.123-1.439-0.371-1.922
					c-0.248-0.48-0.633-0.824-1.156-1.031s-1.227-0.311-2.107-0.311c-0.936,0-1.68,0.158-2.229,0.475
					c-0.553,0.318-0.951,0.875-1.199,1.674S1067.619,395.946,1067.619,397.405z"/>
				<path fill="#754C24" d="M1084.471,409.96v-22.178h4.707l1.404,3.387c0.799-1.02,1.701-1.887,2.705-2.604
					c1.006-0.715,2.195-1.072,3.572-1.072c0.303,0,0.613,0.014,0.93,0.041s0.613,0.082,0.889,0.164v6.279
					c-0.414-0.055-0.848-0.104-1.301-0.145c-0.455-0.043-0.889-0.063-1.301-0.063c-0.799,0-1.521,0.09-2.168,0.268
					c-0.648,0.18-1.24,0.441-1.777,0.785c-0.537,0.346-1.053,0.793-1.549,1.342v13.795H1084.471z"/>
			</g>
			<rect x="508" y="365" fill="#754C24" width="592" height="3"/>
			<rect x="508" y="426" fill="#754C24" width="592" height="3"/>
		</g>
	</g>
</g>
</svg>
